<svg xmlns="http://www.w3.org/2000/svg" xmlns:xlink="http://www.w3.org/1999/xlink" version="1.1" x="0px" y="0px" viewBox="0 0 100 125" enable-background="new 0 0 100 100" xml:space="preserve"><path d="M8.026,16.938v39.018h2c14.634,0,23.026,10.199,23.026,27.982v2H67.05v-2c0-17.783,8.355-27.982,22.924-27.982h2V16.938  H8.026z M87.974,20.938v7.166H12.026v-7.166H87.974z M35.14,35.531c2.165,2.285,4.532,7.392,4.283,13.049  c-0.177,4.003-1.784,9.444-8.119,13.492L35.14,35.531z M12.026,52.013V30.104h21.877L29.57,60.083  C25.319,55.251,19.376,52.44,12.026,52.013z M63.084,81.938H37.019c-0.252-7.24-1.888-13.343-4.732-18.117  c7.135-4.5,8.935-10.639,9.135-15.153c0.292-6.596-2.79-13.199-5.94-15.497l0.443-3.068h28.388l4.586,32.023  C65.387,67.116,63.366,73.81,63.084,81.938z M70.609,59.964l-4.276-29.861h21.641v21.91C80.716,52.438,74.835,55.207,70.609,59.964z  "/></svg>